<svg width="3163" height="885" viewBox="0 0 3163 885" fill="none" xmlns="http://www.w3.org/2000/svg">
<path d="M163.578 475.905C163.447 476.036 163.316 475.905 163.185 475.905C163.316 475.905 163.447 475.905 163.578 475.905Z" fill="#0765E8"/>
<path d="M818.662 455.229C802.305 428.011 772.076 411.653 727.715 406.157C740.147 375.928 733.865 339.942 708.74 298.067C683.484 258.809 650.9 225.178 610.857 197.174C631.925 172.179 653.256 166.552 674.978 180.685C717.115 214.316 740.539 288.776 745.25 403.801C746.951 407.727 748.391 404.848 749.568 395.034C751.793 383.126 753.363 370.04 754.279 356.038C757.813 293.487 749.438 240.488 729.416 196.912C708.871 155.56 681.652 134.623 647.629 133.968C620.541 134.361 595.285 147.578 571.73 173.488C571.73 173.488 571.468 173.75 571.337 173.881C567.411 178.199 563.616 182.91 559.691 187.883C539.8 161.972 505.384 149.279 456.573 150.195C409.987 152.42 364.448 163.935 319.955 184.48C308.701 153.597 314.59 132.398 337.752 120.621C388.002 100.992 464.032 117.872 566.103 171.394C570.29 171.918 568.589 169.17 560.607 163.281C551.316 155.298 540.847 147.447 529.069 139.595C476.725 105.31 426.606 85.9427 378.842 81.4934C332.78 78.6145 300.981 91.7005 283.314 120.882C267.873 148.625 268.789 183.041 286.193 224.131C253.871 228.449 225.867 252.004 202.312 294.533C180.982 336.016 168.158 381.163 163.839 429.973C131.517 424.346 115.945 408.512 117.384 382.602C125.759 329.211 178.365 271.764 275.594 209.998C278.211 206.596 274.939 206.857 265.91 210.652C254.394 214.709 242.355 219.943 229.793 226.094C173.916 254.359 132.04 287.99 104.429 327.118C78.9112 365.46 74.3311 399.745 90.6886 429.45C104.56 452.743 128.769 468.054 163.054 475.513C163.185 475.513 163.316 475.513 163.447 475.513C169.205 476.69 175.224 477.737 181.505 478.523C168.943 508.751 175.224 544.868 200.48 586.744C225.736 626.002 258.32 659.633 298.363 687.637C277.295 712.631 255.965 718.258 234.242 704.125C192.105 670.494 168.681 596.035 163.97 481.009C162.269 477.083 160.83 479.962 159.652 489.776C157.427 501.685 155.857 514.771 154.941 528.773C151.408 591.324 159.783 644.322 179.804 687.898C200.349 729.25 227.568 750.188 261.592 750.842C288.68 750.449 313.936 737.233 337.49 711.322C337.49 711.322 337.752 711.061 337.883 710.93C341.809 706.611 345.604 701.9 349.53 696.928C369.42 722.838 403.836 735.531 452.647 734.615C499.233 732.391 544.773 721.006 589.265 700.33C600.519 731.213 594.63 752.412 571.468 764.19C521.218 783.819 445.188 766.938 343.117 713.416C338.93 712.893 340.631 715.641 348.614 721.529C357.905 729.512 368.373 737.364 380.151 745.215C432.495 779.5 482.614 798.868 530.378 803.317C576.441 806.196 608.24 793.11 625.906 763.928C641.347 736.186 640.431 701.77 623.027 660.68C655.349 656.361 683.353 632.806 706.908 590.277C728.238 548.794 741.063 503.648 745.381 454.837C777.703 460.464 793.276 476.298 791.836 502.208C783.723 555.468 731.117 612.916 633.627 674.682C631.009 678.084 634.281 677.822 643.31 674.027C654.826 669.971 666.865 664.736 679.427 658.586C735.305 630.32 777.18 596.689 804.791 557.562C830.309 519.22 834.889 484.935 818.532 455.229H818.662ZM584.031 240.096C590.704 226.748 597.378 215.232 604.052 205.941C624.728 226.879 640.955 245.461 652.994 261.688C670.398 285.242 683.092 307.227 690.681 327.903C704.553 367.553 700.365 393.202 678.119 404.848C661.761 405.764 645.011 407.858 627.869 410.999C604.706 408.774 578.665 401.184 549.614 388.36C554.849 326.071 566.364 276.736 583.9 240.096H584.031ZM397.032 180.293C426.083 176.89 451.469 177.021 473.192 180.816C514.413 188.668 534.566 205.025 533.65 230.15C526.19 244.937 519.517 260.51 513.759 276.998C500.28 295.842 480.782 314.555 455.134 333.137C403.706 297.281 366.411 262.734 343.51 229.234C335.266 216.803 328.723 205.287 324.012 194.818C352.539 187.359 376.748 182.517 396.901 180.424L397.032 180.293ZM490.204 461.118C478.427 468.054 467.304 475.251 456.704 482.579C444.665 475.774 432.756 469.624 420.979 464.128C420.848 450.257 420.194 436.909 419.147 423.823C430.924 416.887 442.048 409.69 452.647 402.362C464.686 409.167 476.595 415.186 488.372 420.813C488.503 434.684 489.157 448.032 490.204 461.118ZM325.32 645.107C318.647 658.455 311.973 669.84 305.299 679.262C284.623 658.324 268.396 639.742 256.357 623.515C238.953 599.961 226.259 577.976 218.67 557.3C204.668 517.519 208.986 491.87 231.363 480.224C247.59 479.308 264.209 477.214 281.09 474.073C304.252 476.298 330.424 483.888 359.606 496.843C354.371 559.132 342.856 608.466 325.32 645.107ZM214.351 431.936C199.433 432.852 186.347 432.852 174.832 431.675C182.552 403.147 190.666 379.723 198.779 361.141C210.425 334.315 223.25 312.33 237.252 295.319C264.209 263.912 288.287 254.49 309.356 267.053C318.777 281.578 329.508 295.711 341.416 309.582C350.707 330.52 356.858 356.43 360.129 387.313C303.336 414.139 254.656 428.927 214.09 431.936H214.351ZM512.188 704.779C483.138 708.182 457.751 708.051 436.028 704.256C394.807 696.404 374.655 680.047 375.571 654.922C383.03 640.135 389.704 624.562 395.461 608.074C408.94 589.23 428.438 570.517 453.956 551.935C505.384 587.791 542.679 622.338 565.579 655.838C573.824 668.269 580.367 679.654 585.077 690.254C556.55 697.713 532.341 702.555 512.188 704.648V704.779ZM710.441 524.062C698.795 550.888 685.971 572.873 671.968 589.884C644.88 621.291 620.933 630.713 599.865 618.019C590.443 603.494 579.712 589.361 567.804 575.49C558.513 554.552 552.363 528.642 549.091 497.759C605.884 471.063 654.564 456.145 695.131 453.136C710.049 452.22 723.135 452.22 734.65 453.397C726.93 481.925 718.816 505.349 710.703 523.931L710.441 524.062Z" fill="#0765E8"/>
<path d="M571.599 173.357C571.599 173.357 571.337 173.619 571.206 173.75C571.206 173.488 571.206 173.357 571.599 173.357Z" fill="#0765E8"/>
<path d="M337.752 711.715C337.752 711.715 338.014 711.453 338.145 711.322C338.145 711.584 338.145 711.715 337.752 711.715Z" fill="#0765E8"/>
<path d="M1000.84 627.867H989.471V260.278H1000.84V627.867ZM1018.41 627.867H1007.03V260.278H1018.41V627.867ZM1035.92 627.867H1024.55V260.278H1035.92V627.867ZM1053.49 627.867H1042.11V260.278H1053.49V627.867ZM1071 627.867H1059.63V260.278H1071V627.867ZM1122.96 627.867H1111.58V260.81H1122.96V627.867ZM1140.52 627.867H1129.15V260.81H1140.52V627.867ZM1158.03 627.867H1146.66V260.81H1158.03V627.867ZM1175.6 627.867H1164.23V260.81H1175.6V627.867ZM1411.48 260.81L1422.85 260.81V627.867H1408.82L1193.12 280.551V290.616L1193.21 290.568L1402.68 627.867H1389.32L1193.12 311.954V321.825L1383.18 627.867H1369.82L1193.12 343.357V353.228L1363.68 627.867H1350.27L1193.12 374.76V384.631L1344.18 627.868H1330.77L1193.11 406.163V627.868H1181.74V387.873L1181.65 387.679L1181.74 387.631V260.811H1194.23L1341.32 497.661V260.811H1352.69V515.951L1358.89 525.87V260.811H1370.21V544.208L1376.4 554.127V260.811H1387.77V572.417L1393.92 582.384V260.811H1405.29V600.675L1411.48 610.594L1411.48 260.81ZM1449.87 260.278H1461.96L1594.2 627.867H1582.15L1449.87 260.278ZM1467.48 260.278H1479.57L1611.81 627.867H1599.77L1467.48 260.278ZM1485.09 260.278H1497.19L1629.43 627.867H1617.38L1485.09 260.278ZM1502.7 260.278H1514.8L1647.04 627.867H1634.99L1502.7 260.278ZM1785.62 260.278L1797.71 260.277L1665.47 627.866H1652.6L1520.31 260.277H1532.41L1623.81 514.303L1715.16 260.277H1727.26L1629.81 531.045L1632.62 538.739L1732.78 260.277H1744.87L1638.62 555.529L1641.38 563.222L1750.39 260.277H1762.49L1647.42 580.012L1650.23 587.706L1768 260.278H1780.1L1656.52 603.722L1655.89 603.528L1659.04 612.19L1785.62 260.278ZM1981.11 251.423C2087.51 251.423 2174.08 337.937 2174.08 444.387C2174.08 550.788 2087.51 637.351 1981.11 637.351C1874.71 637.351 1788.15 550.788 1788.15 444.387C1788.15 337.986 1874.71 251.423 1981.11 251.423ZM1981.11 625.932C2081.22 625.932 2162.7 544.45 2162.7 444.339C2162.7 344.228 2081.22 262.746 1981.11 262.746C1881 262.746 1799.52 344.179 1799.52 444.339C1799.52 544.498 1881 625.932 1981.11 625.932ZM1981.11 268.455C2078.13 268.455 2157.04 347.373 2156.99 444.339C2156.99 541.304 2078.08 620.222 1981.11 620.222C1884.15 620.222 1805.23 541.353 1805.23 444.339C1805.23 347.373 1884.1 268.455 1981.11 268.455ZM1981.11 608.9C2071.84 608.9 2145.67 535.062 2145.62 444.387C2145.62 353.615 2071.84 279.826 1981.11 279.826C1890.39 279.826 1816.55 353.663 1816.55 444.387C1816.55 535.111 1890.39 608.9 1981.11 608.9ZM1981.11 285.487C2068.74 285.487 2139.96 356.76 2139.96 444.339C2139.96 531.917 2068.69 603.19 1981.11 603.19C1893.53 603.19 1822.26 531.917 1822.26 444.339C1822.26 356.76 1893.53 285.487 1981.11 285.487ZM1981.11 591.82C2062.45 591.82 2128.59 525.676 2128.59 444.339C2128.59 363.002 2062.45 296.858 1981.11 296.858C1899.77 296.858 1833.63 363.002 1833.63 444.339C1833.63 525.676 1899.77 591.82 1981.11 591.82ZM1981.11 302.519C2059.3 302.519 2122.93 366.147 2122.93 444.339C2122.93 522.531 2059.3 586.159 1981.11 586.159C1902.92 586.159 1839.29 522.531 1839.29 444.339C1839.29 366.147 1902.92 302.519 1981.11 302.519ZM1981.11 574.788C2053.06 574.788 2111.56 516.289 2111.56 444.339C2111.56 372.39 2053.06 313.891 1981.11 313.891C1909.16 313.891 1850.66 372.39 1850.66 444.339C1850.66 516.289 1909.16 574.788 1981.11 574.788ZM1981.11 319.599C2049.92 319.599 2105.9 375.534 2105.85 444.339C2105.85 513.095 2049.92 569.078 1981.11 569.078C1912.31 569.078 1856.32 513.144 1856.32 444.339C1856.32 375.582 1912.31 319.599 1981.11 319.599ZM1981.11 557.756C2043.67 557.756 2094.53 506.902 2094.53 444.339C2094.53 381.775 2043.63 330.922 1981.11 330.922C1918.6 330.922 1867.69 381.775 1867.69 444.339C1867.69 506.902 1918.6 557.756 1981.11 557.756ZM2215.11 627.867H2203.74V260.278H2215.11V627.867ZM2232.68 627.867H2221.31V260.278H2232.68V627.867ZM2250.19 627.867H2238.82V260.278H2250.19V627.867ZM2267.71 627.867H2256.34V260.278H2267.71V627.867ZM2427.24 421.984V260.278H2438.61V627.916H2427.24V503.515H2285.27V627.867H2273.9V260.278H2285.27V421.984L2427.24 421.984ZM2427.24 433.356H2285.27V439.549H2427.24V433.356ZM2285.27 457.065H2427.24V450.871H2285.27V457.065ZM2427.24 468.435H2285.27V474.629H2427.24V468.435ZM2285.27 492.144H2427.24V485.951H2285.27V492.144ZM2456.13 627.867H2444.76V260.278H2456.13V627.867ZM2473.69 627.867H2462.32V260.278H2473.69V627.867ZM2491.21 627.867H2479.83V260.278H2491.21V627.867ZM2508.77 627.867H2497.4V260.278H2508.77V627.867ZM2812.62 254.955H2823.99V490.353C2823.99 566.223 2762.29 627.915 2686.43 627.915C2610.56 627.915 2548.86 566.223 2548.86 490.353V254.955H2560.23V490.353C2560.23 559.932 2616.85 616.544 2686.42 616.544C2756 616.544 2812.62 559.932 2812.62 490.353L2812.62 254.955ZM2686.43 610.835C2619.99 610.835 2565.9 556.787 2565.9 490.353V254.956H2577.27V490.353C2577.27 550.545 2626.19 599.512 2686.38 599.512C2746.57 599.512 2795.54 550.546 2795.54 490.353V254.956H2806.91V490.353C2806.91 556.788 2752.86 610.835 2686.43 610.835ZM2686.43 593.803C2629.38 593.803 2582.98 547.352 2582.98 490.353V254.956H2594.35V490.353C2594.35 541.11 2635.67 582.432 2686.43 582.432C2737.18 582.432 2778.5 541.11 2778.5 490.353V254.956H2789.88V490.353C2789.88 547.401 2743.47 593.803 2686.43 593.803ZM2686.43 576.722C2638.77 576.722 2600.01 537.965 2600.01 490.353V254.955H2611.38V490.353C2611.38 531.723 2645.06 565.4 2686.43 565.4C2727.8 565.4 2761.47 531.724 2761.47 490.353V254.955H2772.84V490.305C2772.84 537.965 2734.09 576.722 2686.43 576.722ZM2686.43 559.691C2648.15 559.691 2617.04 528.578 2617.04 490.353V254.956H2628.41V490.353C2628.41 522.337 2654.44 548.368 2686.43 548.368C2718.41 548.368 2744.44 522.337 2744.44 490.353V254.956H2755.81V490.306C2755.81 528.579 2724.7 559.691 2686.43 559.691ZM2875.9 627.867H2864.53V260.084H2875.9V627.867ZM2892.88 627.867H2881.51V260.084H2892.88V627.867ZM2909.96 627.867H2898.59V260.084H2909.96V627.867ZM2926.95 627.867H2915.58V260.084H2926.95V627.867ZM3081.1 380.227C3081.1 402.969 3074.77 424.985 3062.62 444.146C3074.72 463.21 3081.1 485.226 3081.1 508.063C3081.1 574.11 3027.35 627.867 2961.3 627.867H2932.61V260.084H2943.98V260.423H2961.3C3027.35 260.423 3081.1 314.18 3081.1 380.227ZM2943.98 339.874V420.581H2961.3C2983.56 420.581 3001.65 402.485 3001.65 380.228C3001.65 357.97 2983.56 339.874 2961.3 339.874L2943.98 339.874ZM2943.98 431.952L2943.98 437.614H2961.3C2992.94 437.614 3018.69 411.873 3018.69 380.228C3018.69 348.584 2992.94 322.842 2961.3 322.842H2943.98V328.503H2961.3C2989.85 328.503 3013.03 351.729 3013.03 380.228C3013.03 408.776 2989.8 431.953 2961.3 431.953L2943.98 431.952ZM2943.98 467.71V548.418H2961.3C2983.56 548.418 3001.65 530.322 3001.65 508.064C3001.65 502.403 3000.49 496.984 2998.27 491.855C2991.83 477.194 2977.32 467.71 2961.3 467.71L2943.98 467.71ZM2961.3 559.789H2943.93V565.45H2961.25C2992.9 565.45 3018.64 539.708 3018.64 508.064C3018.64 499.838 3016.94 491.902 3013.6 484.5C3004.31 463.935 2983.8 450.678 2961.3 450.678H2943.98V456.339H2961.3C2981.82 456.339 3000.44 468.484 3008.67 487.306C3011.57 493.838 3013.02 500.855 3013.02 508.064C3013.02 536.612 2989.8 559.789 2961.3 559.789ZM2943.98 576.821L2943.98 582.481H2961.3C3002.33 582.481 3035.72 549.094 3035.72 508.063C3035.72 496.402 3033.1 485.225 3027.88 474.822C3022.75 464.613 3015.2 455.613 3006.1 448.694L3000.1 444.146L3006.1 439.598C3024.93 425.372 3035.72 403.744 3035.72 380.228C3035.72 339.197 3002.33 305.811 2961.3 305.811H2943.98V311.472H2961.3C2999.23 311.472 3030.06 342.342 3030.06 380.229C3030.06 409.26 3011.96 434.083 2986.46 444.147C3002.81 450.63 3016.51 463.259 3024.01 479.855C3028.02 488.759 3030.06 498.242 3030.06 508.064C3030.06 545.999 2999.19 576.821 2961.3 576.821L2943.98 576.821ZM2943.98 593.803L2943.98 599.559H2961.3C3011.67 599.559 3052.7 558.528 3052.7 508.11C3052.7 492.046 3048.44 476.223 3040.41 462.385C3037.51 457.353 3034.12 452.611 3030.3 448.208L3026.38 444.676L3030.05 440.418C3044.67 423.724 3052.7 402.338 3052.7 380.226C3052.7 329.808 3011.72 288.776 2961.3 288.776H2943.98V294.389H2961.3C3008.57 294.389 3047.04 332.905 3047.04 380.178C3047.04 404.903 3036.68 427.79 3018.39 444.096C3026.47 451.305 3033.15 460.015 3037.99 469.644C3043.99 481.643 3047.04 494.563 3047.04 508.014C3047.04 555.336 3008.57 593.803 2961.3 593.803L2943.98 593.803ZM3069.78 508.061C3069.78 486.239 3063.34 465.24 3051.15 447.289L3049.02 444.144L3051.15 440.951C3063.44 422.806 3069.83 401.854 3069.83 380.177C3069.83 320.372 3021.2 271.744 2961.39 271.744H2944.07V277.453H2961.39C3018.05 277.453 3064.17 323.565 3064.17 380.225C3064.17 403.499 3056.23 425.998 3041.81 444.143C3044.96 448.111 3047.81 452.272 3050.33 456.627C3059.33 472.207 3064.12 490.013 3064.12 508.061C3064.12 564.721 3018.01 610.833 2961.35 610.833H2944.02V616.494H2961.35C3021.15 616.494 3069.78 567.867 3069.78 508.061Z" fill="black"/>
</svg>
